<svg xmlns="http://www.w3.org/2000/svg" viewBox="0 0 163.88 140.99"><defs><style>.cls-1{fill:#3c50de;}.cls-1,.cls-2{fillRule:evenodd;}.cls-2{fill:#263383;}</style></defs><g id="Layer_2" data-name="Layer 2"><g id="Layer_1-2" data-name="Layer 1"><path class="cls-1" d="M20.35,34.75C9.33,53.86.18,70,0,70.64-.39,72.05,37.09,137,38.21,137c.46,0,3.3-4.32,6.31-9.6C50,117.79,50,117.79,39.74,100c-12-20.82-13.29-19,13.45-19,9.07,0,17.06-.39,17.76-.83,1.13-.72,11.24-17.5,11.24-18.67,0-.26-11.91-.59-26.47-.73C29.26,60.5,29.26,60.5,40.51,41S51.75,21.5,78.92,21.23s27.17-.26,32.72-10.06A116.94,116.94,0,0,0,117.19.69C117.19.31,99.9,0,78.78,0,40.37,0,40.37,0,20.35,34.75"/><path class="cls-2" d="M101.83,40.25C79.18,79.5,79.18,79.5,108.11,80s28.94.5,17.26,20.73S113.69,121,95.94,121c-9.77,0-17.75-.17-17.75-.41s4.7-8.56,10.45-18.5C99.1,84,99.1,84,87.82,84s-11.28,0-27.21,27.62c-8.76,15.2-16.07,28-16.26,28.5s17.31.87,40,.87c40.34,0,40.34,0,60.67-35.25s20.34-35.24,17.55-40.47-2.8-5.23-26-5.5S113.32,59.5,118.73,50c3-5.22,5.76-9.61,6.18-9.75s2.8,3.34,5.28,7.74c4.5,8,4.5,8,15.77,8s11.27,0,8.5-4.82c-1.53-2.65-8.62-15-15.77-27.48S125.42,1,125.09,1s-10.8,17.65-23.26,39.24"/></g></g></svg>